<svg xmlns="http://www.w3.org/2000/svg" width="400" height="400" viewBox="0 0 400 400"><rect width="100%" height="100%" fill="#ff0000"/><path fill="#ffffff" d="M102.77 185.635h3.35v23.86h-3.92v-15.41q0-.93.1-2l-7.21 13.55q-.51.97-1.56.97h-.63q-1.06 0-1.57-.97l-7.29-13.6q.05.55.08 1.08.03.52.03.97v15.41h-3.91v-23.86h3.35q.3 0 .51.02.22.01.39.08t.32.21q.14.15.27.4l7.14 13.25q.28.53.52 1.09t.47 1.15q.23-.61.48-1.18t.53-1.09l7.04-13.22q.14-.25.28-.4.15-.14.33-.21.17-.07.38-.08.22-.02.52-.02m16.96 19.49v-2.86q-1.77.09-2.97.31-1.21.22-1.93.57-.73.34-1.04.81-.32.46-.32 1 0 1.07.64 1.54.63.46 1.66.46 1.25 0 2.17-.45.91-.46 1.79-1.38m-8.62-8.9-.72-1.3q2.92-2.67 7.03-2.67 1.48 0 2.65.48 1.18.49 1.98 1.36.81.86 1.23 2.07.42 1.2.42 2.64v10.69h-1.84q-.58 0-.9-.17-.31-.18-.49-.7l-.36-1.23q-.65.58-1.26 1.02t-1.27.73q-.66.3-1.41.46-.75.15-1.66.15-1.07 0-1.98-.28-.9-.29-1.56-.87t-1.03-1.44q-.36-.85-.36-1.99 0-.65.21-1.28.22-.64.71-1.21.48-.58 1.26-1.09.77-.52 1.9-.89 1.13-.38 2.64-.62 1.5-.24 3.43-.29v-.99q0-1.7-.73-2.52-.72-.82-2.09-.82-.99 0-1.65.24-.65.23-1.14.52-.5.28-.9.52-.41.23-.9.23-.43 0-.73-.23-.29-.22-.48-.52m19.95-2.92.28 1.34q.51-.51 1.08-.95t1.21-.74q.63-.31 1.36-.48t1.58-.17q1.39 0 2.46.47t1.79 1.32 1.09 2.03.37 2.6v10.77h-4.07v-10.77q0-1.56-.71-2.41t-2.16-.85q-1.06 0-1.98.48-.93.48-1.75 1.31v12.24h-4.08v-16.93h2.49q.8 0 1.04.74m25.59-.74h4.08v16.93h-2.49q-.81 0-1.02-.74l-.28-1.36q-1.04 1.06-2.3 1.71-1.25.65-2.95.65-1.39 0-2.45-.47-1.07-.47-1.79-1.32-.73-.86-1.1-2.04t-.37-2.6v-10.76h4.07v10.76q0 1.55.72 2.4t2.16.85q1.05 0 1.98-.47.92-.47 1.74-1.3zm17.05 12.56v-2.86q-1.77.09-2.97.31-1.21.22-1.93.57-.73.34-1.04.81-.31.46-.31 1 0 1.07.63 1.54.64.46 1.66.46 1.25 0 2.17-.45.91-.46 1.79-1.38m-8.61-8.9-.73-1.3q2.92-2.67 7.03-2.67 1.48 0 2.66.48 1.17.49 1.98 1.36.8.86 1.22 2.07.43 1.2.43 2.64v10.69h-1.85q-.58 0-.89-.17-.32-.18-.5-.7l-.36-1.23q-.64.58-1.26 1.02-.61.44-1.27.73-.66.3-1.41.46-.75.15-1.65.15-1.08 0-1.98-.28-.91-.29-1.57-.87t-1.03-1.44q-.36-.85-.36-1.99 0-.65.22-1.28.21-.64.7-1.21.48-.58 1.26-1.09.78-.52 1.91-.89 1.13-.38 2.63-.62t3.43-.29v-.99q0-1.7-.73-2.52-.72-.82-2.09-.82-.99 0-1.64.24-.66.23-1.15.52-.5.28-.9.52-.4.23-.9.23-.43 0-.73-.23-.29-.22-.47-.52m16.46-11.25h4.08v24.52h-4.08zm38 12.59q0 2.62-.87 4.82-.88 2.19-2.46 3.78-1.58 1.58-3.81 2.46-2.23.87-4.95.87h-9.09v-23.86h9.09q2.72 0 4.95.88 2.23.89 3.81 2.46 1.58 1.58 2.46 3.77.87 2.2.87 4.82m-4.55 0q0-1.96-.52-3.52t-1.5-2.64-2.38-1.66q-1.39-.58-3.14-.58h-4.64v16.8h4.64q1.75 0 3.14-.58 1.4-.58 2.38-1.66t1.5-2.64.52-3.52m11.04 1.52h7.69q0-.79-.23-1.49-.22-.71-.66-1.23-.45-.53-1.14-.84-.68-.3-1.59-.3-1.76 0-2.78 1-1.01 1.01-1.29 2.86m10.39 2.46h-10.48q.1 1.3.47 2.25.36.95.95 1.57.6.62 1.41.92.82.31 1.81.31t1.71-.24q.72-.23 1.25-.51.54-.28.94-.51.41-.23.79-.23.51 0 .76.38l1.17 1.49q-.68.79-1.52 1.32-.84.54-1.76.86-.91.32-1.86.46-.95.13-1.84.13-1.77 0-3.29-.59-1.51-.58-2.64-1.73-1.12-1.15-1.76-2.84t-.64-3.92q0-1.73.56-3.26.56-1.52 1.61-2.65 1.04-1.13 2.55-1.79t3.41-.66q1.6 0 2.95.51 1.36.51 2.33 1.49t1.53 2.41q.55 1.43.55 3.26 0 .92-.2 1.25-.2.32-.76.32m4.06-16.57h4.08v24.52h-4.08zm8.28 7.59h4.1v16.93h-4.1zm4.66-4.93q0 .53-.22.99-.21.46-.57.81-.35.34-.83.55t-1.02.21q-.53 0-1-.21t-.82-.55q-.34-.35-.55-.81t-.21-.99q0-.55.21-1.03.21-.47.55-.82.35-.35.82-.55.47-.21 1-.21.54 0 1.02.21.48.2.83.55.36.35.57.82.22.48.22 1.03m15.64 4.93h3.22l-6.72 16.93h-3.69l-6.72-16.93h3.37q.46 0 .76.22.31.21.41.54l3.26 9.04q.27.79.47 1.55.19.76.34 1.52.17-.76.37-1.52.19-.76.47-1.55l3.34-9.04q.11-.33.41-.54.3-.22.71-.22m8.6 6.52h7.68q0-.79-.22-1.49-.22-.71-.67-1.23-.44-.53-1.13-.84-.68-.3-1.59-.3-1.76 0-2.78 1-1.01 1.01-1.29 2.86m10.39 2.46h-10.48q.1 1.3.46 2.25.37.95.96 1.57.6.62 1.41.92.82.31 1.81.31t1.71-.24q.72-.23 1.25-.51.54-.28.94-.51.41-.23.79-.23.51 0 .75.38l1.18 1.49q-.68.79-1.52 1.32-.84.54-1.76.86-.91.32-1.86.46-.95.13-1.84.13-1.77 0-3.29-.59-1.51-.58-2.64-1.73-1.12-1.15-1.76-2.84-.65-1.69-.65-3.92 0-1.73.57-3.26.56-1.52 1.6-2.65 1.05-1.13 2.56-1.79t3.41-.66q1.6 0 2.95.51t2.33 1.49q.97.98 1.52 2.41.56 1.43.56 3.26 0 .92-.2 1.25-.2.32-.76.32m7.61-7.96.24 1.92q.8-1.52 1.89-2.39 1.08-.86 2.57-.86 1.17 0 1.88.51l-.26 3.05q-.09.3-.24.42-.16.13-.42.13-.25 0-.74-.09-.48-.08-.95-.08-.67 0-1.2.2t-.95.57-.74.9-.6 1.2v10.43h-4.08v-16.93h2.39q.63 0 .88.22.24.23.33.8m20.82-1.02h3.27l-9.23 21.58q-.18.43-.47.65-.29.23-.88.23h-3.04l3.17-6.8-6.85-15.66h3.59q.47 0 .75.23.27.23.4.53l3.6 8.78q.18.44.3.89.13.44.24.91.15-.47.3-.92t.33-.9l3.4-8.76q.13-.33.44-.54.3-.22.68-.22"/></svg>