<svg xmlns="http://www.w3.org/2000/svg" width="400" height="400" viewBox="0 0 400 400"><rect width="100%" height="100%" fill="#00ff00"/><path fill="#ffffff" d="M84.96 185.2v24.58h-4.59V185.2zm8.47 7.9.29 1.38q.52-.53 1.11-.98t1.24-.76q.65-.32 1.4-.5.75-.17 1.63-.17 1.43 0 2.54.48 1.1.48 1.84 1.36t1.12 2.09q.39 1.22.39 2.68v11.1h-4.2v-11.1q0-1.6-.73-2.47-.73-.88-2.23-.88-1.09 0-2.04.49-.95.5-1.8 1.35v12.61h-4.2v-17.44h2.57q.81 0 1.07.76m27.13 1.12-.95 1.52q-.17.27-.36.38t-.48.11q-.3 0-.65-.17t-.81-.38-1.04-.38q-.59-.17-1.39-.17-1.24 0-1.95.52-.7.53-.7 1.38 0 .56.36.94.37.39.97.67.61.29 1.37.52.77.23 1.56.5.79.28 1.55.63.77.34 1.37.88.6.53.97 1.28t.37 1.8q0 1.26-.45 2.33-.46 1.06-1.34 1.83t-2.18 1.21q-1.3.43-3 .43-.91 0-1.76-.16-.86-.16-1.65-.45t-1.46-.68q-.68-.39-1.19-.85l.97-1.6q.19-.29.44-.44.26-.15.65-.15t.74.22.81.47q.46.26 1.08.48t1.57.22q.75 0 1.28-.18.54-.18.89-.47.35-.28.51-.67.16-.38.16-.79 0-.61-.37-1-.36-.39-.97-.68-.6-.29-1.37-.52-.78-.23-1.58-.5-.81-.27-1.58-.64-.78-.36-1.38-.92-.61-.57-.97-1.38-.37-.82-.37-1.97 0-1.07.43-2.04.42-.97 1.25-1.69.82-.73 2.06-1.16 1.23-.43 2.84-.43 1.8 0 3.28.59 1.48.6 2.47 1.56m9.16 15.83q-2.28 0-3.49-1.28-1.22-1.29-1.22-3.55v-9.74h-1.78q-.34 0-.58-.22t-.24-.66v-1.67l2.81-.46.88-4.76q.09-.34.32-.52.24-.19.62-.19h2.17v5.49h4.66v2.99h-4.66v9.45q0 .82.4 1.28t1.1.46q.39 0 .65-.09.27-.1.46-.2.2-.1.35-.2.15-.09.31-.09.18 0 .3.09.12.1.26.28l1.25 2.04q-.91.77-2.1 1.16t-2.47.39m16.05-4.77v-2.95q-1.82.09-3.06.32t-1.99.58q-.75.36-1.07.84-.32.47-.32 1.03 0 1.11.65 1.59.66.47 1.71.47 1.29 0 2.24-.47.94-.46 1.84-1.41m-8.87-9.17-.75-1.34q3.01-2.76 7.24-2.76 1.53 0 2.74.51 1.2.5 2.04 1.39.83.89 1.26 2.13.44 1.24.44 2.72v11.02h-1.91q-.59 0-.92-.18-.32-.18-.51-.72l-.37-1.26q-.66.6-1.29 1.05t-1.31.75q-.68.31-1.45.47-.78.16-1.71.16-1.11 0-2.04-.3-.94-.29-1.62-.89-.68-.59-1.05-1.48-.38-.88-.38-2.05 0-.67.23-1.32.22-.66.72-1.25.5-.6 1.3-1.12.8-.53 1.96-.92 1.17-.39 2.71-.64 1.55-.25 3.54-.3v-1.02q0-1.75-.75-2.59t-2.16-.84q-1.02 0-1.69.24t-1.18.53q-.51.3-.93.54-.41.24-.92.24-.45 0-.75-.23-.31-.23-.49-.54m20.55-3.01.29 1.38q.52-.53 1.11-.98t1.24-.76q.66-.32 1.4-.5.75-.17 1.64-.17 1.42 0 2.53.48 1.1.48 1.84 1.36t1.13 2.09q.38 1.22.38 2.68v11.1h-4.2v-11.1q0-1.6-.73-2.47-.73-.88-2.23-.88-1.09 0-2.04.49-.95.5-1.8 1.35v12.61h-4.2v-17.44h2.57q.81 0 1.07.76m21.35 16.95q-2.28 0-3.49-1.28-1.22-1.29-1.22-3.55v-9.74h-1.78q-.34 0-.58-.22t-.24-.66v-1.67l2.81-.46.88-4.76q.08-.34.32-.52.24-.19.61-.19h2.18v5.49h4.66v2.99h-4.66v9.45q0 .82.4 1.28t1.1.46q.39 0 .65-.09.26-.1.46-.2t.35-.2q.15-.09.3-.09.19 0 .31.09.12.1.26.28l1.25 2.04q-.91.77-2.1 1.16t-2.47.39m37.59-12.56q0 2.7-.9 4.96t-2.54 3.9q-1.63 1.63-3.92 2.53-2.3.9-5.1.9h-9.37V185.2h9.37q2.8 0 5.1.91 2.29.91 3.92 2.53 1.64 1.62 2.54 3.88.9 2.27.9 4.97m-4.69 0q0-2.02-.54-3.63t-1.55-2.72-2.44-1.71q-1.44-.59-3.24-.59h-4.78v17.3h4.78q1.8 0 3.24-.59 1.43-.6 2.44-1.71 1.01-1.12 1.55-2.72.54-1.61.54-3.63m11.37 1.56h7.92q0-.81-.23-1.54-.23-.72-.69-1.26-.46-.55-1.16-.86-.71-.32-1.64-.32-1.82 0-2.87 1.04-1.04 1.04-1.33 2.94m10.71 2.54h-10.8q.11 1.34.48 2.32.37.97.99 1.61.61.64 1.45.95.84.32 1.86.32t1.76-.24 1.29-.53.97-.52q.42-.24.81-.24.53 0 .78.39l1.21 1.53q-.7.81-1.57 1.37-.86.55-1.81.88-.94.33-1.92.47t-1.89.14q-1.82 0-3.39-.61-1.56-.6-2.72-1.78-1.15-1.19-1.82-2.93-.66-1.74-.66-4.04 0-1.78.58-3.35.58-1.58 1.66-2.74t2.63-1.84q1.56-.68 3.51-.68 1.65 0 3.05.52 1.39.53 2.39 1.54 1.01 1.01 1.58 2.48.56 1.47.56 3.36 0 .95-.2 1.28-.2.34-.78.34m4.18-17.07h4.2v25.26h-4.2zm8.53 7.82h4.22v17.44h-4.22zm4.8-5.09q0 .55-.22 1.02-.22.48-.59.84-.36.35-.86.57-.49.21-1.05.21-.55 0-1.03-.21-.48-.22-.84-.57-.36-.36-.57-.84-.21-.47-.21-1.02 0-.56.21-1.05t.57-.85.84-.57 1.03-.21q.56 0 1.05.21.5.21.86.57.37.36.59.85t.22 1.05m16.12 5.09h3.31l-6.92 17.44h-3.81l-6.92-17.44h3.47q.48 0 .79.22.32.22.42.56l3.37 9.32q.27.81.47 1.59.21.79.36 1.57.17-.78.37-1.57.21-.78.49-1.59l3.44-9.32q.12-.34.42-.56.31-.22.74-.22m8.85 6.71h7.92q0-.81-.23-1.54-.22-.72-.68-1.26-.46-.55-1.17-.86-.7-.32-1.64-.32-1.82 0-2.86 1.04-1.05 1.04-1.34 2.94m10.71 2.54h-10.79q.1 1.34.47 2.32.38.97.99 1.61t1.45.95q.84.32 1.86.32t1.76-.24 1.3-.53q.55-.29.96-.52.42-.24.81-.24.53 0 .78.39l1.21 1.53q-.7.81-1.56 1.37-.87.55-1.81.88-.95.33-1.92.47-.98.14-1.9.14-1.82 0-3.38-.61-1.57-.6-2.72-1.78-1.16-1.19-1.82-2.93t-.66-4.04q0-1.78.57-3.35.58-1.58 1.66-2.74t2.64-1.84q1.55-.68 3.51-.68 1.65 0 3.04.52 1.39.53 2.4 1.54 1 1.01 1.57 2.48t.57 3.36q0 .95-.21 1.28-.2.34-.78.34m7.84-8.2.25 1.97q.82-1.56 1.94-2.45 1.12-.9 2.65-.9 1.21 0 1.94.53l-.27 3.15q-.08.3-.25.43-.16.13-.43.13-.25 0-.76-.09-.5-.08-.97-.08-.7 0-1.24.2-.55.21-.98.59-.44.38-.77.92-.33.55-.62 1.25v10.74h-4.2v-17.44h2.47q.64 0 .9.23.25.23.34.82m21.45-1.05h3.37l-9.5 22.23q-.19.45-.49.68t-.91.23h-3.13l3.27-7.01-7.06-16.13h3.69q.5 0 .78.24.28.23.41.54l3.71 9.04q.19.46.31.92.13.46.25.94.15-.48.31-.95.15-.46.34-.92l3.5-9.03q.13-.34.45-.56.31-.22.7-.22"/></svg>