<svg width="24" height="24" viewBox="0 0 24 24" fill="none" xmlns="http://www.w3.org/2000/svg">
<path d="M6 14.666L4 22C3.46957 22 2.96101 21.7891 2.58594 21.4141C2.21086 21.039 2 20.5304 2 20V13C2 12.4696 2.21086 11.961 2.58594 11.5859C2.96101 11.2109 3.46957 11 4 11H6V14.666ZM11 2C11.7956 2 12.5585 2.3163 13.1211 2.87891C13.6837 3.44152 14 4.20435 14 5V9H19.6602C19.95 8.99674 20.2375 9.05611 20.502 9.1748C20.7663 9.29348 21.0012 9.46887 21.1914 9.6875C21.3816 9.90628 21.5227 10.164 21.6035 10.4424C21.6843 10.7207 21.7036 11.0133 21.6602 11.2998L20.2803 20.2998C20.208 20.7767 19.9652 21.212 19.5977 21.5244C19.2302 21.8366 18.7624 22.0054 18.2803 22H8V8.75L11 2Z" fill="#853EFF"/>
</svg>
