<svg width="42" height="28" viewBox="0 0 42 28" fill="none" xmlns="http://www.w3.org/2000/svg">
<g clip-path="url(#clip0_912_28315)">
<mask id="mask0_912_28315" style="mask-type:luminance" maskUnits="userSpaceOnUse" x="0" y="0" width="42" height="28">
<path d="M42 0H0V28H42V0Z" fill="white"/>
</mask>
<g mask="url(#mask0_912_28315)">
<path d="M0.5 6C0.5 2.96614 2.96614 0.5 6 0.5H36C39.0339 0.5 41.5 2.96614 41.5 6V22C41.5 25.0339 39.0339 27.5 36 27.5H6C2.96614 27.5 0.5 25.0339 0.5 22V6Z" fill="white" stroke="#E7E7E7"/>
<path fill-rule="evenodd" clip-rule="evenodd" d="M9.97816 10.2287C10.5386 10.2786 11.1091 9.95882 11.4594 9.54907C11.8097 9.12932 12.0299 8.56966 11.9798 8C11.4794 8.01999 10.8689 8.31981 10.5086 8.73955C10.1883 9.09934 9.9081 9.67899 9.97816 10.2287ZM16.6838 17.5742V8.67959H20.1167C24.14 8.61963 24.09 14.616 20.0666 14.5361H18.105V17.5742H16.6838ZM11.9698 10.3386C11.2592 10.2786 10.6587 10.7084 10.0682 10.7883C9.5578 10.7483 9.00734 10.3386 8.43686 10.3686C5.30423 10.5385 5.61449 14.646 7.01567 16.4249C7.43602 17.0146 7.92643 17.6642 8.58699 17.6442C9.24754 17.6042 9.48774 17.2444 10.2083 17.2544C10.5987 17.2544 10.8389 17.3544 11.0791 17.4543C12.5603 18.3338 13.7713 15.9552 14.0416 15.0857H14.0216C12.4903 14.4761 12.19 12.2275 13.7813 11.298C13.1909 10.4485 12.2801 10.3586 11.9598 10.3386H11.9698ZM25.7114 17.6442C26.6021 17.6442 27.4328 17.2045 27.8031 16.5049H27.8331V17.5742H29.1442V13.1469C29.2643 10.3786 23.8698 10.3586 23.7998 13.027H25.0808C25.271 11.7577 27.9132 11.8177 27.7831 13.2368V13.7265L26.0116 13.8265C22.6688 13.7765 22.6688 17.6042 25.7114 17.6342V17.6442ZM26.0917 16.5848C24.4103 16.6148 24.4503 14.716 26.2018 14.7559L27.7831 14.656C27.9132 15.7353 27.3628 16.5648 26.0917 16.5848ZM33.5079 17.924C32.9174 19.7029 31.9266 20.1427 30.3653 19.9628V18.8934C31.0959 18.9934 31.7464 18.8435 31.9766 17.994L32.1067 17.6042L29.7047 11.1281H31.186L32.8574 16.3849H32.8874L34.5588 11.1281H36L33.5079 17.934V17.924ZM18.105 9.83889C19.6162 9.83889 21.688 9.54907 21.678 11.5978C21.678 13.6466 19.6162 13.3668 18.105 13.3668V9.83889Z" fill="#161616"/>
</g>
</g>
<defs>
<clipPath id="clip0_912_28315">
<rect width="42" height="28" fill="white"/>
</clipPath>
</defs>
</svg>
