<svg width="42" height="28" viewBox="0 0 42 28" fill="none" xmlns="http://www.w3.org/2000/svg">
<g clip-path="url(#clip0_912_28304)">
<mask id="mask0_912_28304" style="mask-type:luminance" maskUnits="userSpaceOnUse" x="0" y="0" width="42" height="28">
<path d="M42 0H0V28H42V0Z" fill="white"/>
</mask>
<g mask="url(#mask0_912_28304)">
<path d="M0.5 6C0.5 2.96614 2.96614 0.5 6 0.5H36C39.0339 0.5 41.5 2.96614 41.5 6V22C41.5 25.0339 39.0339 27.5 36 27.5H6C2.96614 27.5 0.5 25.0339 0.5 22V6Z" fill="white" stroke="#E7E7E7"/>
<path fill-rule="evenodd" clip-rule="evenodd" d="M19.8409 17.39V13.87C21.0109 13.85 22.7909 14.09 23.6509 13.13L23.7809 13.01C24.7409 11.99 24.6809 10.4 23.6509 9.45998C23.1409 8.95998 22.4309 8.68998 21.7109 8.69998H18.7109V17.39H19.8409ZM19.8409 12.8V9.75998C20.6109 9.81998 22.2509 9.51996 22.8209 10.19C23.8209 11.09 23.0809 12.88 21.7409 12.8H19.8409ZM29.0609 11.9C27.9609 10.87 25.4509 11.05 24.6609 12.4L25.6609 13.02C26.4909 11.65 28.9109 12.17 28.7109 13.89C27.2909 13.13 24.4009 13.5 24.4509 15.55C24.4409 16.11 24.6809 16.65 25.1209 17.01C26.1109 17.89 27.9009 17.81 28.6609 16.57H28.7109V17.39H29.7909V13.72C29.7909 12.95 29.5509 12.34 29.0709 11.9H29.0609ZM25.9809 16.29C25.4509 15.91 25.5009 15.11 26.0609 14.75C26.7209 14.25 28.1309 14.35 28.6909 14.83C28.6909 15.3 28.5009 15.71 28.1309 16.06C27.7909 16.39 27.3309 16.58 26.8609 16.58C26.5409 16.58 26.2309 16.48 25.9809 16.29ZM32.2209 20L36.0009 11.44H34.7709L33.0209 15.71H33.0009L31.2109 11.44H29.9809L32.4609 17.01L31.0509 20H32.2209Z" fill="#181819"/>
<path d="M15.9303 13.0998C15.9303 12.7598 15.9003 12.4198 15.8503 12.0898H11.0703V14.0098H13.8103C13.7003 14.6298 13.3303 15.1798 12.8003 15.5298V16.7798H14.4303C15.3903 15.9098 15.9403 14.6298 15.9403 13.1098L15.9303 13.0998Z" fill="#4285F4"/>
<path d="M11.0707 17.9799C12.4307 17.9799 13.5907 17.5399 14.4307 16.7699L12.8007 15.5199C11.2707 16.5899 8.75078 15.7699 8.23078 13.9399H6.55078V15.2299C7.41078 16.9099 9.16078 17.9799 11.0707 17.9799Z" fill="#34A853"/>
<path d="M8.22 13.9498C8.01 13.3298 8.01 12.6598 8.22 12.0398V10.7598H6.54C5.82 12.1698 5.82 13.8298 6.54 15.2398L8.22 13.9598V13.9498Z" fill="#FBBC04"/>
<path d="M11.0707 9.97983C11.7907 9.96983 12.4907 10.2398 13.0107 10.7298L14.4607 9.29983C12.1407 7.05983 7.93078 7.86983 6.55078 10.7599L8.23078 12.0499C8.63078 10.8599 9.75078 9.97983 11.0707 9.97983Z" fill="#EA4335"/>
</g>
</g>
<defs>
<clipPath id="clip0_912_28304">
<rect width="42" height="28" fill="white"/>
</clipPath>
</defs>
</svg>
