<?xml version="1.0" encoding="UTF-8" standalone="no"?><svg width="80" height="80" viewBox="0 0 80 80" fill="none" xmlns="http://www.w3.org/2000/svg">
<mask id="mask0_840_3459" style="mask-type:alpha" maskUnits="userSpaceOnUse" x="0" y="0" width="80" height="80">
<path d="M80 40C80 17.9086 62.0914 0 40 0C17.9086 0 0 17.9086 0 40C0 62.0914 17.9086 80 40 80C62.0914 80 80 62.0914 80 40Z" fill="#1E69FF"/>
</mask>
<g mask="url(#mask0_840_3459)">
<path d="M80 40C80 17.9086 62.0914 0 40 0C17.9086 0 0 17.9086 0 40C0 62.0914 17.9086 80 40 80C62.0914 80 80 62.0914 80 40Z" fill="#1E69FF"/>
<path d="M22.5 52.5C25.9518 52.5 28.75 49.7018 28.75 46.25C28.75 42.7982 25.9518 40 22.5 40C19.0482 40 16.25 42.7982 16.25 46.25C16.25 49.7018 19.0482 52.5 22.5 52.5Z" fill="#F0BD70"/>
<path d="M22.501 51.25H43.751V82.3375C43.751 82.3375 39.1972 85 33.126 85C27.0547 85 22.501 80.6538 22.501 80.6538V51.25Z" fill="#F0BD70"/>
<path d="M43.7505 67.335C43.7505 74.4025 42.648 73.7325 35.4792 73.7325C28.3105 73.7325 25.003 68.0037 25.003 60.9362C25.003 53.8687 24.7305 47.5 30.5155 47.5C46.8755 48.125 43.7505 60.2675 43.7505 67.335Z" fill="#E9B05B"/>
<path d="M57.3577 45.125C57.3577 56.2775 61.9652 69.9912 41.8752 69.9912C21.7852 69.9912 21.7852 56.2775 21.7852 45.125C18.7502 31.875 19.3752 16.25 40.0002 16.25C60.6252 16.25 57.3577 33.9712 57.3577 45.125Z" fill="#FFCB7E"/>
<path d="M47.501 51.25H46.251C45.5606 51.25 45.001 51.8096 45.001 52.5C45.001 53.1904 45.5606 53.75 46.251 53.75H47.501C48.1913 53.75 48.751 53.1904 48.751 52.5C48.751 51.8096 48.1913 51.25 47.501 51.25Z" fill="#F0BD70"/>
<path d="M47.5 75H20C13.7868 75 8.75 80.0368 8.75 86.25V92.5C8.75 98.7132 13.7868 103.75 20 103.75H47.5C53.7132 103.75 58.75 98.7132 58.75 92.5V86.25C58.75 80.0368 53.7132 75 47.5 75Z" fill="#0A358A"/>
<path fill-rule="evenodd" clip-rule="evenodd" d="M57.4598 40.6038C58.4973 40.0183 59.2916 39.0815 59.6995 37.9621C60.1075 36.8428 60.1022 35.6146 59.6848 34.4988C60.8259 33.9487 61.7156 32.986 62.1742 31.8052C62.6329 30.6244 62.6262 29.3135 62.1556 28.1374C61.685 26.9613 60.7856 26.0076 59.639 25.4691C58.4924 24.9306 57.1841 24.8474 55.9785 25.2363C57.7498 29.8288 57.6198 35.5088 57.4598 40.6038Z" fill="#05031D"/>
<path fill-rule="evenodd" clip-rule="evenodd" d="M45.3712 28.45C44.2321 29.4514 42.7667 30.0025 41.25 30C39.8667 30.0022 38.5222 29.5435 37.4287 28.6962C36.6174 29.5073 35.654 30.1504 34.5938 30.5886C33.5335 31.0268 32.3972 31.2516 31.25 31.25C30.3838 31.2506 29.5223 31.1225 28.6937 30.87C28.3679 31.2266 27.9924 31.5343 27.5787 31.7837C28.0708 32.3693 28.422 33.0599 28.6053 33.8024C28.7886 34.545 28.7991 35.3197 28.636 36.067C28.4729 36.8142 28.1405 37.5141 27.6644 38.1127C27.1884 38.7113 26.5813 39.1928 25.89 39.52C26.0963 39.8026 26.2194 40.1373 26.2454 40.4863C26.2714 40.8352 26.1992 41.1845 26.037 41.4946C25.8748 41.8046 25.6291 42.0631 25.3277 42.2408C25.0262 42.4185 24.6811 42.5083 24.3313 42.5C23.7185 43.5662 22.7343 44.3692 21.5668 44.7554C20.3993 45.1417 19.1303 45.0842 18.0026 44.5939C16.8748 44.1035 15.9673 43.2148 15.4535 42.0975C14.9397 40.9802 14.8557 39.7128 15.2175 38.5375C14.7517 38.0737 14.3822 37.5224 14.1304 36.9153C13.8785 36.3082 13.7493 35.6573 13.75 35C13.75 33.6175 14.3113 32.3662 15.2175 31.4625C14.9761 30.6728 14.934 29.8357 15.0949 29.0258C15.2559 28.2159 15.615 27.4585 16.14 26.8212C15.4897 25.6754 15.1065 24.3975 15.0188 23.083C14.9312 21.7684 15.1414 20.451 15.6338 19.229C16.1262 18.0069 16.8881 16.9118 17.8627 16.0253C18.8373 15.1387 19.9995 14.4836 21.2625 14.1087C21.1975 13.2104 21.3764 12.3112 21.7803 11.5061C22.1841 10.7011 22.798 10.0201 23.5569 9.53503C24.3158 9.04999 25.1916 8.77896 26.0919 8.75057C26.9921 8.72218 27.8833 8.93748 28.6712 9.37373C29.4392 8.04339 30.5439 6.93875 31.8743 6.17096C33.2048 5.40316 34.7139 4.99929 36.25 4.99998C37.9662 4.99998 39.5675 5.49373 40.9187 6.34873C41.8469 5.34887 43.0118 4.59874 44.3062 4.16748C45.6005 3.73623 46.9825 3.63772 48.3249 3.88105C49.6673 4.12437 50.9268 4.7017 51.9874 5.55981C53.048 6.41792 53.8756 7.5292 54.3937 8.79123C55.055 8.87694 55.6925 9.09406 56.2686 9.42981C56.8447 9.76556 57.3478 10.2132 57.7484 10.7463C58.1489 11.2794 58.4388 11.8872 58.601 12.534C58.7631 13.1808 58.7942 13.8535 58.6925 14.5125C61.0112 16.23 62.5 18.89 62.5 21.875C62.5 27.0525 58.0225 31.25 52.5 31.25C49.7087 31.25 47.185 30.1775 45.3712 28.45Z" fill="#05031D"/>
<path d="M41.25 45.6323C41.25 44.185 40.4105 43.0117 39.375 43.0117C38.3395 43.0117 37.5 44.185 37.5 45.6323V47.3794C37.5 48.8267 38.3395 50 39.375 50C40.4105 50 41.25 48.8267 41.25 47.3794V45.6323Z" fill="#1B0B47"/>
<path d="M53.75 45.6323C53.75 44.185 52.9105 43.0117 51.875 43.0117C50.8395 43.0117 50 44.185 50 45.6323V47.3794C50 48.8267 50.8395 50 51.875 50C52.9105 50 53.75 48.8267 53.75 47.3794V45.6323Z" fill="#1B0B47"/>
<path d="M34.375 48.75H31.875C30.8395 48.75 30 49.5895 30 50.625C30 51.6605 30.8395 52.5 31.875 52.5H34.375C35.4105 52.5 36.25 51.6605 36.25 50.625C36.25 49.5895 35.4105 48.75 34.375 48.75Z" fill="#FF859B"/>
<path d="M56.875 48.75H55.625C54.5895 48.75 53.75 49.5895 53.75 50.625C53.75 51.6605 54.5895 52.5 55.625 52.5H56.875C57.9105 52.5 58.75 51.6605 58.75 50.625C58.75 49.5895 57.9105 48.75 56.875 48.75Z" fill="#FF859B"/>
<path d="M36.1754 57.2327C36.1381 56.7383 36.5361 56.3212 37.0298 56.3328C39.4395 56.3864 47.8423 56.5479 50.4247 56.2101C53.4514 55.8142 47.2826 66.1987 41.8303 63.7537C37.6589 61.8822 36.2904 58.7871 36.1754 57.2327Z" fill="#66253C"/>
<path d="M38.7757 57.5201C38.9767 57.5438 39.4728 57.2203 39.5784 57.5201C40.9029 58.1823 46.8345 58.1358 48.9732 57.2137C49.663 56.9164 49.6953 56.2817 49.6953 56.2817C46.7384 56.5063 40.1905 56.3995 37.5325 56.3433C37.5325 56.3433 37.4009 57.3586 38.7757 57.5201Z" fill="white"/>
<path d="M49.5799 60.4061C44.402 57.5176 37.5796 60.4351 37.5428 60.4515L37.5414 60.4527L37.544 60.4529C38.4245 61.6307 39.7914 62.8392 41.8324 63.7548C44.6966 65.0374 47.7566 62.7798 49.5799 60.4061L49.5812 60.4074C49.5812 60.4061 49.5799 60.4061 49.5799 60.4061Z" fill="#B03E67"/>
<rect x="34.5654" y="39.6611" width="6.92027" height="2.83005" rx="1.41503" transform="rotate(-15 34.5654 39.6611)" fill="#05031D"/>
<rect x="51.2588" y="37.8701" width="4.76459" height="2.83005" rx="1.41503" transform="rotate(15.693 51.2588 37.8701)" fill="#05031D"/>
</g>
</svg>
